# xmcd
# 
# Track frame offsets:
#     151
#     16712
#     32102
#     43302
#     57686
#     76115
#     88239
#     105019
#     125672
#     136479
# 
# Disc length: 1996
# 
# Revision: 4
# Processed by: cddbd v1.5.2PL0 Copyright (c) Steve Scherf et al.
# Submitted via: fre:ac v1.0.31
# 
DISCID=7f07ca0a
DTITLE=Various Artist - Putumayo Presents: A Jazz and Blues Christmas
DYEAR=2008
DGENRE=Christmas Music
TTITLE0=B.B. King - Christmas Celebration
TTITLE1=Charles Brown - Santa's Blues
TTITLE2=Randy Greer and Ignasi Terraza Trio - Wrap Yourself In A Christmas Package
TTITLE3=Emilie-Claire Barlow - Santa Baby
TTITLE4=Ray Charles - Rudolf The Red-Nosed Reindeer
TTITLE5=Ramsey Lewis Trio - Here Comes Santa Claus
TTITLE6=The Dukes Of Dixieland Feat. Luther Kent - Merry Christmas Baby
TTITLE7=Topsy Chapman And Lars Edegran - The Christmas Blues
TTITLE8=Riff Ruffin - Xmas Baby
TTITLE9=Mighty Blue Kings - All I Ask For Christmas
EXTD=Label: Putumayo World Music\nSerie: Putumayo Presents\nBestellnummer: PUT 285-2\nFirma: Indigo\nEVOE: 2008\n\n\n Für freedb bereitgestelt von:\n    KELLER'S Musik-Katalog 2007 2007
EXTT0=
EXTT1=
EXTT2=
EXTT3=
EXTT4=
EXTT5=
EXTT6=
EXTT7=
EXTT8=
EXTT9=
PLAYORDER=
